<?xml version="1.0" standalone="no"?>
<!DOCTYPE svg PUBLIC "-//W3C//DTD SVG 20010904//EN"
 "http://www.w3.org/TR/2001/REC-SVG-20010904/DTD/svg10.dtd">
<svg version="1.0" xmlns="http://www.w3.org/2000/svg"
 width="512.000000pt" height="512.000000pt" viewBox="0 0 512.000000 512.000000"
 preserveAspectRatio="xMidYMid meet">
<metadata>
Created by potrace 1.14, written by Peter Selinger 2001-2017
</metadata>
<g transform="translate(0.000000,512.000000) scale(0.100000,-0.100000)"
fill="#000000" stroke="none">
<path d="M2337 4923 c-2 -1 -29 -4 -62 -7 -33 -3 -71 -8 -85 -11 -43 -9 -74
-15 -105 -20 -216 -38 -524 -159 -745 -293 -85 -52 -238 -163 -290 -210 -19
-18 -38 -32 -42 -32 -5 0 -8 -5 -8 -11 0 -6 169 -180 375 -386 l375 -374 38
29 c161 127 400 225 607 248 33 3 61 7 62 8 2 2 4 602 3 974 l0 93 -61 -3
c-33 -2 -61 -4 -62 -5z"/>
<path d="M2725 4888 c-59 -22 -89 -70 -81 -131 19 -133 205 -141 234 -9 21 91
-66 171 -153 140z"/>
<path d="M3129 4808 c-28 -11 -69 -54 -70 -76 -8 -95 36 -151 121 -157 19 -1
69 23 88 41 7 8 18 29 23 46 29 100 -63 182 -162 146z"/>
<path d="M3506 4647 c-62 -36 -81 -113 -42 -171 72 -111 250 -33 216 94 -22
82 -102 118 -174 77z"/>
<path d="M2737 4456 c-145 -73 -78 -291 84 -272 130 16 172 180 68 259 -48 35
-99 40 -152 13z"/>
<path d="M3874 4414 c-39 -19 -64 -62 -64 -113 0 -33 6 -47 35 -76 34 -33 43
-37 80 -37 44 0 57 4 85 30 62 54 48 162 -25 196 -41 20 -71 20 -111 0z"/>
<path d="M3142 4350 c-70 -43 -93 -135 -49 -200 67 -100 198 -94 251 12 19 38
23 55 16 79 -5 16 -10 33 -11 37 -14 51 -74 92 -135 92 -22 0 -54 -9 -72 -20z"/>
<path d="M827 4168 c-9 -13 -30 -39 -48 -58 -44 -49 -157 -202 -206 -281 -41
-65 -144 -264 -143 -274 0 -3 -7 -19 -16 -36 -43 -85 -130 -368 -148 -484 -4
-22 -11 -67 -16 -100 -5 -33 -12 -97 -15 -141 l-6 -82 530 0 c292 0 533 3 535
7 2 3 7 26 10 51 11 78 16 103 42 194 40 141 104 264 221 428 l31 44 -371 372
c-205 205 -375 374 -378 377 -4 3 -13 -5 -22 -17z"/>
<path d="M3883 3796 l-372 -373 54 -72 c56 -76 117 -186 158 -288 35 -86 76
-263 80 -340 0 -8 136 -11 535 -11 l534 0 -6 87 c-34 464 -225 930 -535 1303
-31 37 -60 68 -66 67 -5 0 -177 -168 -382 -373z"/>
<path d="M3513 4136 c-80 -44 -99 -150 -42 -220 102 -122 299 -13 249 138 -11
35 -69 95 -93 97 -7 0 -27 2 -44 3 -19 1 -49 -7 -70 -18z"/>
<path d="M2771 4035 c-73 -41 -107 -103 -99 -186 16 -166 246 -212 329 -65 67
118 -16 262 -151 264 -30 0 -66 -6 -79 -13z"/>
<path d="M3150 3862 c-175 -96 -100 -353 99 -337 128 11 200 165 128 273 -48
74 -154 103 -227 64z"/>
<path d="M2752 3520 c-94 -42 -140 -150 -107 -249 17 -51 77 -121 105 -121 9
0 21 -5 27 -11 6 -6 30 -11 54 -10 116 0 204 77 213 186 14 159 -147 271 -292
205z"/>
<path d="M2490 3079 c-203 -28 -361 -176 -406 -380 -6 -29 -7 -133 0 -174 13
-88 77 -203 150 -268 122 -110 311 -149 466 -97 62 21 168 88 200 127 136 163
162 368 70 541 -33 62 -109 152 -128 152 -7 0 -12 4 -12 10 0 14 -107 65 -165
79 -69 16 -111 18 -175 10z"/>
<path d="M235 2436 c4 -90 30 -257 55 -360 11 -45 22 -90 24 -101 25 -116 162
-434 240 -555 13 -19 40 -62 61 -95 21 -33 41 -62 45 -65 3 -3 17 -21 30 -40
24 -36 102 -131 131 -161 15 -15 43 10 395 362 l378 378 -26 28 c-70 75 -203
327 -223 423 -1 3 -9 39 -18 80 -9 41 -20 98 -25 125 l-7 50 -532 1 -531 0 3
-70z"/>
<path d="M3805 2500 c-1 -3 -6 -32 -10 -65 -3 -32 -8 -62 -11 -66 -2 -4 -6
-24 -10 -44 -13 -83 -85 -265 -138 -350 -43 -68 -101 -150 -109 -157 -6 -3
161 -177 370 -386 l380 -381 29 36 c16 20 34 41 39 47 97 100 276 398 353 586
38 95 100 279 107 322 3 18 8 41 11 50 6 21 11 47 25 128 16 93 18 105 24 200
l6 86 -531 0 c-292 0 -533 -3 -535 -6z"/>
<path d="M3342 1635 c-38 -39 -153 -112 -254 -160 -104 -49 -237 -90 -345
-107 -40 -6 -73 -14 -74 -17 0 -3 -1 -242 -1 -531 l-1 -525 59 1 c56 2 109 7
199 19 93 13 360 84 430 114 11 5 36 15 55 22 82 30 283 133 379 194 100 63
222 155 304 228 l37 33 -374 374 c-206 206 -378 376 -383 377 -4 1 -19 -8 -31
-22z"/>
<path d="M1363 1276 c-205 -205 -373 -376 -373 -380 0 -19 264 -226 288 -226
6 0 12 -4 14 -8 4 -10 105 -72 117 -72 5 0 11 -4 13 -9 9 -24 356 -170 493
-207 89 -24 234 -55 285 -60 25 -3 56 -7 70 -10 14 -2 62 -7 108 -10 l82 -7 0
67 c0 36 0 176 0 311 0 135 0 345 0 468 l0 223 -26 2 c-69 6 -167 25 -244 48
-93 29 -280 112 -280 126 0 4 -5 8 -12 8 -6 0 -26 11 -44 25 -18 14 -35 25
-39 25 -3 0 -20 13 -38 30 -18 16 -34 30 -37 29 -3 0 -173 -168 -377 -373z"/>
</g>
</svg>
